<svg version="1.1" id="Layer_1" xmlns="http://www.w3.org/2000/svg" xmlns:xlink="http://www.w3.org/1999/xlink" x="0px" y="0px"
	 width="100%" viewBox="0 0 1024 304" enable-background="new 0 0 1024 304" xml:space="preserve">
<path fill="#000000" opacity="1.000000" stroke="none" 
	d="
M598.769714,96.404877 
	C593.969543,120.419006 580.917664,137.183960 557.878357,144.960693 
	C536.761597,152.088486 518.033630,146.535355 502.257782,131.506073 
	C489.715759,119.557663 482.946716,104.681915 482.573639,87.059532 
	C482.491119,83.161354 483.412842,81.438271 487.454895,81.746002 
	C490.936218,82.011040 494.540680,81.510452 497.907379,82.219269 
	C502.384949,83.161987 504.267578,81.893097 505.816681,77.484383 
	C510.374573,64.512848 519.441650,55.861980 533.023682,52.848820 
	C550.878235,48.887810 568.504211,58.169312 574.885681,75.355225 
	C577.032654,81.137215 579.669861,83.127022 585.535828,82.087944 
	C588.768433,81.515335 592.177063,81.954910 595.505676,81.900124 
	C598.333862,81.853577 599.938965,82.861603 599.606384,86.033417 
	C599.259888,89.337776 599.111572,92.662910 598.769714,96.404877 
M554.260864,87.630844 
	C559.200562,86.325523 564.140198,85.020203 569.005554,83.734512 
	C567.669006,70.790657 554.747437,59.684196 541.127014,59.364155 
	C528.482483,59.067039 514.454285,70.250626 512.715881,81.785667 
	C512.324463,84.382751 513.702820,85.015518 515.517334,85.612732 
	C520.418579,87.225929 525.412903,88.715294 529.796814,91.461327 
	C534.351013,94.314018 538.538818,94.453705 543.270386,91.794754 
	C546.421326,90.024033 550.069580,89.138367 554.260864,87.630844 
M579.960938,107.393303 
	C581.117249,107.257523 582.271362,107.097908 583.430359,106.991150 
	C585.552612,106.795639 588.537354,107.062332 588.297974,104.118019 
	C588.036072,100.896782 584.850830,102.200661 583.007385,102.335838 
	C571.967346,103.145401 561.153381,104.924377 551.839478,111.580940 
	C548.704224,113.821732 545.609070,113.750664 543.657349,110.518494 
	C541.607910,107.124504 545.288513,105.814438 547.232971,104.598587 
	C554.653259,99.958702 562.886963,97.375450 571.478638,95.786766 
	C577.091064,94.748985 582.738281,94.846054 588.389221,94.723099 
	C589.970276,94.688705 591.536865,94.450867 591.524780,92.389610 
	C591.512695,90.340569 589.918335,90.132690 588.359741,90.033661 
	C587.696716,89.991539 587.028564,90.012741 586.363281,90.027863 
	C570.127808,90.396751 554.657043,93.864998 540.479431,101.969711 
	C536.933594,103.996689 534.346191,103.838844 531.024475,101.533669 
	C520.076294,93.935936 507.491302,90.893272 494.484985,89.312904 
	C492.969727,89.128784 490.784821,88.689499 490.615295,91.191818 
	C490.459106,93.497490 492.375244,93.638992 494.085114,93.806244 
	C509.151764,95.279938 522.080811,101.770119 534.066040,110.630814 
	C543.835327,117.853210 553.655640,125.013565 564.742065,130.209198 
	C567.783447,131.634552 570.070312,131.917938 571.259949,128.358490 
	C570.846558,126.080605 567.792969,125.865425 568.002563,123.477348 
	C571.973694,119.061447 580.625549,123.932114 582.930176,115.969002 
	C577.172974,114.739639 572.421448,115.894096 565.406860,120.105324 
	C560.699585,122.931343 558.548889,122.408104 554.542969,117.153801 
	C561.717163,111.285614 569.864624,108.098740 579.960938,107.393303 
M545.869629,128.676208 
	C539.564026,124.055016 533.223633,119.480331 526.961060,114.801552 
	C517.987915,108.097778 507.958221,103.907768 496.969757,101.926544 
	C495.534454,101.667763 493.759216,100.930649 493.332581,103.120819 
	C492.963348,105.016327 493.987518,106.463776 496.001556,106.589500 
	C507.245514,107.291458 515.949707,113.561508 524.600952,119.764458 
	C531.392029,124.633682 537.857361,129.957169 544.467407,135.078857 
	C538.244019,136.567139 531.929810,131.356705 526.604248,137.168961 
	C536.241211,141.508301 552.441223,141.014053 557.951477,136.008728 
	C554.078369,133.671906 550.273132,131.376038 545.869629,128.676208 
M517.936035,132.103348 
	C519.922119,130.871231 522.551331,130.527328 523.891357,128.215485 
	C518.618408,124.336441 516.960632,124.538704 511.946442,129.487335 
	C513.223511,131.398682 515.052124,132.252838 517.936035,132.103348 
M501.054138,115.455719 
	C500.065216,117.747559 500.436432,119.273323 502.534485,120.747978 
	C505.282898,122.679756 507.540314,121.613602 509.965393,119.598610 
	C507.231354,117.498482 504.573792,116.268410 501.054138,115.455719 
z"/>
<path fill="#000000" opacity="1.000000" stroke="none" 
	d="
M669.567261,263.498444 
	C651.597473,245.506271 633.712036,227.950577 615.244507,210.698364 
	C613.649780,213.009048 614.190674,214.884155 614.185608,216.634079 
	C614.143066,231.294662 614.136414,245.955582 614.202332,260.616028 
	C614.217590,264.014191 613.732239,266.409454 609.383545,266.349426 
	C605.278198,266.292694 604.872620,264.004242 604.873413,260.829407 
	C604.878906,238.671829 604.820679,216.514252 604.804871,194.356659 
	C604.804077,193.216751 605.005249,192.076706 605.274353,189.211700 
	C625.538696,208.852951 644.933350,227.651245 664.441833,246.559860 
	C666.650879,243.983017 665.959595,241.728317 665.964111,239.681396 
	C665.995117,225.687347 665.915649,211.693069 665.879822,197.698837 
	C665.871826,194.563812 665.858582,191.722336 670.435425,191.699127 
	C675.167358,191.675125 675.332153,194.453964 675.323792,197.915329 
	C675.272644,219.073334 675.300720,240.231491 675.254944,261.389496 
	C675.251160,263.135895 675.769836,265.064331 674.245361,266.590576 
	C672.002014,266.777557 671.214478,264.789185 669.567261,263.498444 
z"/>
<path fill="#000000" opacity="1.000000" stroke="none" 
	d="
M414.793274,261.766235 
	C414.787506,237.750824 414.787506,214.209198 414.787506,190.667557 
	C415.278137,190.486572 415.768799,190.305573 416.259430,190.124588 
	C425.961151,199.559708 435.638672,209.019897 445.371399,218.422913 
	C455.020020,227.744675 464.724304,237.008804 474.552582,246.440628 
	C476.482086,243.947205 475.823975,241.887100 475.832001,239.995880 
	C475.892059,225.831970 475.824127,211.667496 475.897766,197.503723 
	C475.910034,195.146820 475.367981,192.312759 479.081207,191.755096 
	C483.623749,191.072861 485.189423,192.220230 485.192932,196.907990 
	C485.209076,218.570663 485.179779,240.233398 485.134369,261.896057 
	C485.131012,263.497742 485.384033,265.235168 483.500336,267.133087 
	C464.227936,247.857697 444.980255,228.739288 424.031769,209.709366 
	C424.031769,219.400284 424.040649,227.830093 424.029236,236.259872 
	C424.017761,244.757904 423.990936,253.255905 423.960388,261.753906 
	C423.951111,264.327942 423.428040,266.345123 420.112701,266.297821 
	C417.206879,266.256378 414.616119,266.165436 414.793274,261.766235 
z"/>
<path fill="#000000" opacity="1.000000" stroke="none" 
	d="
M513.721558,217.999863 
	C513.720520,210.501373 513.764221,203.502426 513.695251,196.504593 
	C513.671082,194.045349 514.161743,192.041367 517.070007,192.060257 
	C529.686523,192.142166 542.464539,190.618622 554.756958,194.651932 
	C570.927856,199.957825 581.058777,214.390762 580.035461,230.103638 
	C578.832336,248.578751 567.571167,261.690796 549.925476,265.077454 
	C539.188171,267.138214 528.328247,266.012573 517.519470,266.188232 
	C513.820557,266.248352 513.857239,263.601166 513.850647,260.990509 
	C513.815002,246.826935 513.766235,232.663406 513.721558,217.999863 
M553.695557,255.341782 
	C568.255676,249.091171 571.662354,235.426208 570.273560,226.435104 
	C567.820312,210.552307 560.644775,203.423340 544.940735,200.808640 
	C539.160522,199.846252 533.315735,200.613632 527.519409,200.247192 
	C523.657227,200.003052 522.157654,201.319733 522.322327,205.325577 
	C522.697632,214.455673 522.817871,223.600006 522.850342,232.739227 
	C522.873962,239.383530 522.532532,246.028427 522.474548,252.674118 
	C522.451965,255.260147 522.786987,257.858124 526.332581,257.888367 
	C535.283386,257.964691 544.310242,258.900635 553.695557,255.341782 
z"/>
<path fill="#000000" opacity="1.000000" stroke="none" 
	d="
M268.859802,201.071075 
	C268.867828,199.084808 268.920776,197.585983 268.875366,196.090118 
	C268.795258,193.452133 269.943359,191.940079 272.668182,191.980194 
	C280.641846,192.097549 288.654083,191.368881 296.570679,192.842194 
	C306.322113,194.656967 313.414398,201.602341 314.253967,210.032074 
	C315.432312,221.863358 311.331177,228.879227 300.696869,233.286850 
	C299.664978,233.714554 298.701721,234.307907 297.358826,235.004883 
	C303.168762,245.268082 310.393524,254.417099 315.085175,265.096069 
	C307.475037,267.556458 305.633911,266.681244 302.133270,260.671600 
	C297.781982,253.201675 293.095856,245.926071 288.512787,238.592499 
	C287.634949,237.187866 286.629822,235.870316 284.963135,235.216187 
	C280.821442,233.590591 278.988770,234.686600 278.938782,239.119049 
	C278.859985,246.106491 278.953918,253.095718 278.927521,260.084015 
	C278.915253,263.336121 279.025726,266.399475 274.121643,266.356964 
	C269.547729,266.317291 269.707397,263.600677 269.547699,260.445312 
	C268.554810,240.824188 269.116028,221.187622 268.859802,201.071075 
M303.208527,206.537598 
	C299.616364,201.043625 293.842712,200.717529 288.198029,200.434326 
	C278.291901,199.937302 278.286194,200.041962 278.333344,209.772873 
	C278.341400,211.432556 278.356689,213.092224 278.366669,214.751892 
	C278.443115,227.443222 278.442993,227.443222 291.154602,226.869446 
	C302.569458,226.354233 307.884613,217.953506 303.208527,206.537598 
z"/>
<path fill="#000000" opacity="1.000000" stroke="none" 
	d="
M723.042114,232.224152 
	C709.724060,232.322266 711.456604,230.774551 711.312317,243.319870 
	C711.275940,246.482819 711.520752,249.663788 711.262390,252.805710 
	C710.929443,256.854553 712.741943,257.996521 716.517822,257.931732 
	C726.837769,257.754547 737.162292,257.867462 747.484619,257.800385 
	C750.625732,257.779968 753.196167,258.164062 753.079041,262.251617 
	C752.963135,266.299347 750.021179,266.035858 747.388611,266.056000 
	C734.236145,266.156708 721.081909,266.094940 707.931091,266.285248 
	C704.053772,266.341309 702.687988,264.914673 702.671509,261.026459 
	C702.583374,240.221939 702.257751,219.418564 702.086426,198.614197 
	C702.035645,192.444687 702.548096,191.955063 708.515747,191.942780 
	C721.335754,191.916367 734.155945,191.950806 746.975891,192.001373 
	C749.790833,192.012482 752.908936,191.616989 752.879639,196.029861 
	C752.849609,200.539398 749.834900,200.348969 746.689392,200.330917 
	C736.699951,200.273590 726.707031,200.443497 716.721802,200.227707 
	C712.623230,200.139130 710.966125,201.507080 711.216064,205.686996 
	C711.483948,210.166611 711.433411,214.680420 711.242310,219.167419 
	C711.095581,222.613235 712.410767,223.917343 715.871277,223.867493 
	C725.192993,223.733200 734.518555,223.895081 743.841431,223.808807 
	C746.887024,223.780624 748.430481,224.723877 748.519592,228.051773 
	C748.600830,231.089981 747.512939,232.291245 744.512878,232.254333 
	C737.521057,232.168350 730.527527,232.225082 723.042114,232.224152 
z"/>
<path fill="#000000" opacity="1.000000" stroke="none" 
	d="
M363.000031,191.980103 
	C369.665894,191.998291 375.833679,191.930511 381.996735,192.070862 
	C384.800049,192.134705 388.317078,191.214172 388.403259,196.089706 
	C388.488312,200.899231 385.181946,200.290573 382.235626,200.301498 
	C372.903656,200.336060 363.568115,200.457993 354.240967,200.242081 
	C350.336884,200.151718 348.791504,201.457672 349.019012,205.405731 
	C349.267914,209.724808 349.331024,214.083618 349.044556,218.396530 
	C348.743927,222.921936 350.710632,224.130722 354.935272,224.013519 
	C363.093384,223.787155 371.264404,223.945816 379.428314,224.065582 
	C381.550171,224.096695 383.938263,224.121277 384.212463,227.213821 
	C384.485382,230.291748 383.930786,232.371857 380.055908,232.300644 
	C371.393311,232.141510 362.723206,232.376541 354.061340,232.198975 
	C350.430878,232.124542 348.905426,233.344330 349.049774,237.075592 
	C349.255768,242.400650 349.260101,247.743301 349.087280,253.069885 
	C348.965271,256.830383 350.610260,257.976868 354.181854,257.911621 
	C363.511047,257.741119 372.845032,257.832550 382.177094,257.816925 
	C385.095001,257.812042 388.079010,257.617157 388.042175,261.926086 
	C388.006104,266.145508 385.075836,266.097321 382.135925,266.105621 
	C369.804321,266.140564 357.471466,266.080017 345.141907,266.255402 
	C341.320801,266.309784 339.772217,264.996796 339.785461,261.060120 
	C339.857208,239.729950 339.831024,218.398605 339.651886,197.069214 
	C339.618011,193.038101 341.266998,191.789459 345.003540,191.894470 
	C350.831879,192.058273 356.667511,191.964005 363.000031,191.980103 
z"/>
<path fill="#000000" opacity="1.000000" stroke="none" 
	d="
M804.316650,233.664612 
	C799.315918,231.319672 794.605896,229.217484 789.950439,227.000885 
	C779.782532,222.159576 775.774170,214.875122 778.028748,205.486740 
	C779.944885,197.507538 788.130554,191.893509 797.774780,191.591995 
	C803.723450,191.406006 809.399292,192.193665 814.704468,194.933014 
	C817.339172,196.293427 819.766724,197.872025 817.686340,201.499237 
	C815.827148,204.740921 813.857483,205.464355 810.526794,202.994263 
	C806.153381,199.750885 800.885071,199.489349 795.674866,200.341751 
	C791.672485,200.996506 788.443359,203.011246 787.361816,207.247726 
	C786.226440,211.695297 788.052979,215.014313 791.699280,217.519379 
	C797.094727,221.226074 803.388123,223.131134 809.090759,226.218018 
	C814.803711,229.310486 819.712219,233.130600 821.257935,239.930984 
	C824.238831,253.045654 815.678345,264.514771 801.462952,266.109009 
	C791.533813,267.222565 782.784058,264.057281 774.907166,258.071289 
	C771.419800,255.421082 773.684753,253.110565 775.160156,250.822754 
	C777.017883,247.941956 778.836975,249.742279 780.485535,251.160156 
	C785.618713,255.574890 791.532043,257.870728 798.311890,257.758179 
	C805.558533,257.637970 810.537842,254.073380 812.239624,247.912079 
	C813.777405,242.344971 811.371033,237.898468 804.316650,233.664612 
z"/>
<path fill="#000000" opacity="1.000000" stroke="none" 
	d="
M197.151581,191.930389 
	C212.776215,191.945602 227.920074,191.931900 243.063538,192.000900 
	C245.142792,192.010376 247.583160,191.552567 248.866394,193.910660 
	C250.425293,196.775375 248.544968,200.180557 245.224289,200.286880 
	C239.737503,200.462570 234.232239,200.589615 228.753983,200.330597 
	C224.587463,200.133606 223.230118,201.698486 223.260849,205.807144 
	C223.397736,224.111725 223.323364,242.418259 223.231384,260.723633 
	C223.220734,262.844238 224.090042,265.582092 220.608215,266.286530 
	C216.491638,267.119385 214.694229,265.855194 214.670151,261.538910 
	C214.568039,243.236938 214.437683,224.933807 214.563324,206.632797 
	C214.593689,202.209244 213.309204,200.094574 208.622879,200.333344 
	C203.975098,200.570160 199.305649,200.351746 194.646744,200.412277 
	C191.788040,200.449387 189.289642,200.342285 189.169632,196.443878 
	C189.043793,192.355484 191.512939,191.818436 194.673721,191.930130 
	C195.338501,191.953629 196.004990,191.929688 197.151581,191.930389 
z"/>
<path fill="#000000" opacity="1.000000" stroke="none" 
	d="
M861.509949,202.742218 
	C860.554321,200.067810 858.560791,200.389771 856.773132,200.375565 
	C851.612305,200.334503 846.449463,200.280502 841.290466,200.383652 
	C838.263611,200.444138 836.639343,199.514114 836.659119,196.136826 
	C836.677307,193.024734 838.197327,192.018234 840.963806,192.016220 
	C857.945496,192.003922 874.927185,192.005280 891.908752,191.941574 
	C894.894470,191.930374 895.507385,193.507324 895.413208,196.085922 
	C895.325134,198.496521 895.027405,200.369919 891.940002,200.328598 
	C886.447083,200.255081 880.946472,200.482773 875.460266,200.281143 
	C871.782593,200.145996 870.504578,201.492874 870.520325,205.201675 
	C870.598816,223.679657 870.446045,242.158539 870.418091,260.637177 
	C870.413696,263.514374 871.008179,266.326843 866.457092,266.349640 
	C862.077698,266.371552 861.696655,263.985504 861.698975,260.602600 
	C861.712219,241.456970 861.630371,222.311279 861.509949,202.742218 
z"/>
</svg>